<svg width="107" height="19" viewBox="0 0 107 19" fill="none" xmlns="http://www.w3.org/2000/svg">
<g clip-path="url(#clip0_279_853)">
<path d="M20.868 6.13462C21.4791 6.13447 22.0654 6.3778 22.4982 6.81124C22.9309 7.24468 23.1749 7.83284 23.1764 8.44669C23.1747 9.06043 22.9307 9.64844 22.498 10.0818C22.0652 10.5151 21.479 10.7583 20.868 10.7582C20.257 10.7582 19.671 10.5148 19.2383 10.0815C18.8057 9.64824 18.5618 9.06033 18.5601 8.44669C18.5616 7.83294 18.8055 7.24488 19.2381 6.81145C19.6708 6.37802 20.2569 6.13462 20.868 6.13462V6.13462ZM39.9211 15.6821C39.9211 17.3072 40.4413 17.692 41.8187 18.3053L41.9357 18.3588V18.7364H33.6146V18.3783L33.705 18.3196C34.7803 17.6338 34.8436 17.3779 34.8436 15.6827V8.47697C34.8436 6.73253 34.7112 6.45644 33.5566 5.79322L33.4567 5.73562V5.37106H39.9216V15.6827L39.9211 15.6821ZM88.4612 13.737L88.5286 13.5411L88.9129 13.6966L88.8928 13.8486C88.5747 16.1981 87.4616 18.9982 83.9625 18.9982C82.6519 18.9982 81.5582 18.5927 80.7986 17.8244C79.9946 17.0121 79.5932 15.8496 79.605 14.3705L79.6582 6.2225L79.6488 5.37878L79.7759 5.3295C81.644 4.58909 83.2377 2.80487 84.037 0.553969L84.0849 0.42275H84.6831V5.37106H88.69L88.2431 6.61972H84.6831V14.478C84.6831 15.7368 85.1442 16.3756 86.0546 16.3756C87.1583 16.3756 88.0208 15.0136 88.4606 13.737H88.4612ZM6.75105 15.4203C6.75105 17.0175 7.07205 17.5026 8.65754 18.3101L8.76572 18.3647V18.7358H0V18.3795L0.088674 18.3213C1.17464 17.6047 1.43888 17.0192 1.43888 15.3413V3.36834C1.43888 1.69219 1.18705 1.14 0.0892652 0.415625L0 0.355656V0H6.74869L6.75164 15.4203H6.75105ZM9.91021 0C14.5224 0 17.2761 2.08169 17.2761 5.56878C17.2761 9.05587 14.542 11.1382 9.96223 11.1382H8.07643V10.7308L8.15151 10.7118C9.34447 10.4126 12.12 9.18709 12.12 5.56878C12.12 3.49244 11.3639 2.00153 9.87474 1.13525C9.23629 0.764156 8.58838 0.49875 8.15801 0.421562L8.07643 0.406719V0H9.91021ZM100.779 9.75294C99.8186 7.68847 98.3791 6.12691 97.0224 5.67506L96.9538 5.65309V5.16919L97.5154 5.22381C98.3076 5.301 98.7746 5.34731 99.5094 5.34731C100.104 5.34731 100.533 5.34731 100.946 5.22262L101.201 5.14663L101.208 9.87881L100.83 9.861L100.779 9.75294V9.75294ZM54.3306 5.11159C57.8982 5.38175 60.0288 7.75556 60.0288 11.4641V11.6618H53.8086L53.8163 11.2937L53.9061 11.2373C54.6279 10.7884 54.9495 9.95244 54.9495 8.52566C54.9495 6.97597 54.5257 5.89891 54.2425 5.53613L54.2218 5.51297L54.2242 5.10387L54.3306 5.11159V5.11159ZM59.4169 14.2613L59.4979 14.0986L59.8798 14.2488L59.8337 14.4204C59.0628 17.2686 56.4818 18.9982 53.3167 18.9982C49.1798 18.9982 46.2914 16.1482 46.2914 12.0668C46.2914 8.27094 48.9286 5.41084 52.7055 5.11159L52.8119 5.10328V5.51119L52.78 5.54087C51.8779 6.37687 51.4215 8.33863 51.4215 11.4641C51.4215 14.5427 52.9591 16.4546 55.4355 16.4546C57.1569 16.4546 58.7199 15.656 59.4169 14.2607V14.2613ZM67.6737 15.7872C67.6778 17.3702 67.7476 17.6421 68.8111 18.3196L68.9027 18.3789V18.7364H61.366V18.3783L61.457 18.3196C62.5323 17.6344 62.595 17.3779 62.595 15.6827V8.47697C62.595 6.73253 62.4626 6.45644 61.3086 5.79322L61.2087 5.73562V5.37047H67.6731V15.7878L67.6737 15.7872ZM76.6475 15.6827C76.6475 17.3785 76.7107 17.635 77.7855 18.3196L77.8759 18.3789V18.7364H70.3398V18.3783L70.4302 18.3196C71.5062 17.6338 71.57 17.3779 71.57 15.6827V8.66281C71.57 7.42484 70.9788 6.68563 69.9875 6.68563C69.6931 6.68563 69.3939 6.72956 69.1953 6.76578L69.0788 6.78656V6.37925L69.1137 6.34956C69.8231 5.74988 71.0303 5.10863 72.29 5.10863C75.0182 5.10863 76.6469 6.87681 76.6469 9.83903V15.6827H76.6475ZM31.8683 17.4978C31.964 17.4978 32.2052 17.4895 32.3926 17.4087L32.6675 17.2918V17.7193L32.6173 17.7757C31.9457 18.5303 30.6753 19 29.3056 19C27.0397 19 25.5754 17.7816 25.5754 15.8977L25.5765 9.49525C25.5765 7.96219 24.9647 7.06325 24.4516 6.57994C23.858 6.02062 23.1433 5.77066 22.6982 5.77066H22.5007V5.36037L22.6527 5.32416C22.9512 5.25231 23.8409 5.187 24.1335 5.187C28.5034 5.187 30.6274 6.74975 30.6274 9.96669C30.6274 10.7148 30.6168 11.4552 30.6038 12.2384L30.6032 12.2995C30.5902 13.1153 30.576 14.0392 30.576 15.0498C30.576 16.7432 30.7622 17.4978 31.8689 17.4978H31.8683ZM17.4055 15.691C17.4055 12.6344 20.6906 12.0602 23.5879 11.5544L24.4758 11.4463V11.8322L24.4084 11.853C23.0641 12.2882 22.3524 13.4282 22.3524 15.0177C22.3524 16.2135 22.8336 16.9533 23.6724 16.9533C23.9231 16.9533 24.1483 16.9177 24.3416 16.8471L24.4758 16.7984V17.1902L24.4628 17.2128C23.9556 18.0547 22.4588 18.9941 21.1227 18.9941C18.6824 18.9941 17.4055 17.3328 17.4055 15.691ZM43.322 5.11159C43.9332 5.11143 44.5194 5.35477 44.9522 5.78821C45.385 6.22165 45.6289 6.80981 45.6305 7.42366C45.6289 8.0375 45.385 8.62566 44.9522 9.0591C44.5194 9.49255 43.9332 9.73588 43.322 9.73572C42.7108 9.73588 42.1245 9.49255 41.6918 9.0591C41.259 8.62566 41.0151 8.0375 41.0135 7.42366C41.0151 6.80981 41.259 6.22165 41.6918 5.78821C42.1245 5.35477 42.7108 5.11143 43.322 5.11159V5.11159ZM90.8773 13.6521C92.231 16.4415 93.5316 17.9526 94.9693 18.4074L95.0373 18.4288V18.9252L94.9232 18.9074C94.5975 18.8545 94.2434 18.7886 93.8089 18.7002C93.1834 18.5707 92.6443 18.4597 92.2127 18.4597C91.6848 18.4597 91.3012 18.5297 91.0056 18.6806L90.736 18.8177L90.4375 13.5292L90.8259 13.5458L90.8773 13.6527V13.6521ZM97.5503 9.64013C100.063 10.5129 101.984 11.4321 101.984 14.5908C101.984 15.7367 101.506 16.8055 100.636 17.6005C99.6371 18.5143 98.184 18.997 96.4354 18.997H96.3367L96.2988 18.8973V18.5232L96.3958 18.522C97.0082 18.5113 97.5509 18.3083 97.9233 17.9497C98.2952 17.591 98.4991 17.0935 98.4991 16.5496C98.4991 15.2861 97.6301 15.0213 95.8998 14.494L95.4765 14.3634C91.965 13.2768 90.6349 11.818 90.7336 9.16334C90.8176 6.87147 92.8494 5.16978 95.5634 5.11634L95.6639 5.11397V5.57412L95.5776 5.58481C95.1222 5.64327 94.7035 5.86634 94.4 6.21232C94.0964 6.55829 93.9287 7.00348 93.9283 7.46462C93.9283 8.52922 95.3086 8.94781 96.6435 9.35216L96.7044 9.37116C96.9869 9.45725 97.2796 9.54572 97.5497 9.64013H97.5503ZM105.257 15.8151C104.375 15.8151 103.686 16.5413 103.686 17.3767C103.686 18.2477 104.363 18.9252 105.245 18.9252C105.449 18.9275 105.652 18.8893 105.842 18.8127C106.032 18.736 106.204 18.6225 106.35 18.4786C106.496 18.3347 106.612 18.1633 106.692 17.9742C106.772 17.7851 106.814 17.582 106.815 17.3767C106.815 17.1712 106.775 16.9677 106.697 16.7778C106.619 16.5879 106.504 16.4155 106.359 16.2704C106.214 16.1252 106.042 16.0103 105.853 15.9322C105.664 15.854 105.461 15.8143 105.257 15.8151ZM105.245 16.0942C105.945 16.0942 106.477 16.6624 106.477 17.3767C106.477 18.1028 105.945 18.6473 105.257 18.6473C104.568 18.6473 104.037 18.1028 104.037 17.3767C104.037 16.6624 104.544 16.0942 105.245 16.0942V16.0942ZM106.139 18.0548C106.102 18.0304 106.042 17.9942 105.981 17.9455C105.8 17.7276 105.704 17.6071 105.583 17.3767C105.776 17.3048 105.909 17.1707 105.909 16.9658C105.909 16.6143 105.595 16.5413 105.329 16.5413H104.508V16.723C104.713 16.7348 104.725 16.7348 104.725 16.9533V17.7757C104.725 17.9942 104.713 17.9942 104.496 18.0061V18.1877H105.305V18.0061C105.112 17.9942 105.088 17.9942 105.088 17.7757V17.4859H105.135C105.196 17.4859 105.257 17.4978 105.293 17.5702C105.341 17.6552 105.414 17.7994 105.51 17.9574C105.655 18.1509 105.825 18.1996 106.102 18.1996L106.139 18.0548V18.0548ZM105.088 17.3048V16.8684C105.088 16.7473 105.124 16.723 105.232 16.723C105.341 16.723 105.522 16.7717 105.522 17.0014C105.522 17.1226 105.485 17.195 105.402 17.255C105.333 17.2844 105.259 17.3013 105.184 17.3048H105.088Z" fill="black" fill-opacity="0.95"/>
</g>
<defs>
<clipPath id="clip0_279_853">
<rect width="107" height="19" fill="white"/>
</clipPath>
</defs>
</svg>
