<svg width="546" height="128" viewBox="0 0 546 128" fill="none" xmlns="http://www.w3.org/2000/svg">
<g id="Fill=white, Layout=horiz">
<g id="Group">
<mask id="mask0_1709_9137" style="mask-type:luminance" maskUnits="userSpaceOnUse" x="0" y="0" width="545" height="128">
<path id="Clip 2" fill-rule="evenodd" clip-rule="evenodd" d="M0 0H544.977V127.315H0V0Z" fill="white"/>
</mask>
<g mask="url(#mask0_1709_9137)">
<path id="Fill 1" fill-rule="evenodd" clip-rule="evenodd" d="M101.818 102.49H120.603L120.437 56.3638C120.437 34.3862 107.52 22.983 79.5088 22.983C63.2368 23.1494 52.5008 29.0214 48.1392 32.0406V25.327H29.688V102.49H48.1392V50.3206C49.9856 48.4758 61.392 39.4182 78.8384 39.4182C97.456 39.4182 101.818 45.1222 101.818 62.9014V102.49ZM0 102.49H19.7952V2.18142H0V102.49ZM463.96 71.4566H544.978C544.813 38.0806 522.165 23.3174 493.986 23.1494C463.96 22.983 443.832 39.7526 443.832 64.2454C443.832 88.735 461.947 105.341 493.986 105.341C517.803 105.173 531.056 99.9718 541.957 91.2486L532.398 78.6694C526.53 83.703 516.462 89.0694 493.986 89.0694C481.238 89.2406 466.309 84.0406 463.96 71.4566V71.4566ZM417.667 102.657H436.285V2.18142H417.667V102.657ZM355.098 127.316L411.962 25.327H391.834L360.299 83.367L329.939 25.327H308.133L349.898 101.65L334.803 127.316H355.098ZM283.979 105.341C293.373 105.341 307.128 101.818 307.128 101.818L302.766 86.2182C302.766 86.2182 295.219 89.2406 287.501 89.2406C280.12 89.2406 277.605 87.3926 277.605 81.1846L277.435 40.5942H302.429V25.327H277.435V5.20382H259.155V25.327H246.072V40.5942H259.155V81.5206C259.155 98.7974 267.206 105.341 283.979 105.506V105.341ZM192.563 105.506C224.768 105.506 246.072 93.431 246.072 71.7926C246.072 42.2726 207.49 42.1046 186.526 41.0966C179.478 40.7622 151.634 40.7622 151.634 29.8566C151.634 19.1254 172.603 15.2678 186.693 15.2678C207.49 15.2678 224.099 21.639 233.491 28.8518L243.219 15.2678C231.31 7.04542 213.53 0.00221524 186.357 0.00221524C156.666 -0.167385 132.344 9.39421 132.344 31.2006C132.344 56.8662 168.242 57.3702 186.526 58.375C195.752 59.0454 227.454 57.7014 227.454 72.295C227.454 84.711 210.846 89.911 192.563 89.911C160.859 89.911 143.248 78.503 138.72 74.8102L128.821 89.911C146.771 102.657 165.891 105.506 192.563 105.506V105.506ZM493.986 39.2502C508.746 39.2502 521.829 45.4566 524.011 56.5286H464.128C466.477 45.2902 479.058 39.2502 493.986 39.2502V39.2502Z" fill="white"/>
</g>
</g>
</g>
</svg>
