<svg width="103" height="25" viewBox="0 0 103 25" fill="none" xmlns="http://www.w3.org/2000/svg">
<path d="M93.319 9.13956C96.1238 9.13956 98.6019 10.3513 99.0163 12.5129H87.6467C88.0923 10.3192 90.4828 9.13956 93.319 9.13956ZM36.0912 22.0719C42.2028 22.0719 46.2506 19.7127 46.2506 15.494C46.2506 9.73579 38.9273 9.70204 34.9436 9.50598C33.6053 9.44009 28.3223 9.44009 28.3223 7.31068C28.3223 5.21503 32.306 4.4613 34.9764 4.4613C38.9273 4.4613 42.0762 5.7068 43.8617 7.11462L45.7097 4.4613C43.4473 2.85581 40.0687 1.48014 34.9123 1.48014C29.2776 1.44799 24.6575 3.31383 24.6575 7.56621C24.6575 12.5707 31.4711 12.6704 34.9436 12.8664C36.6963 12.9982 42.7125 12.7346 42.7125 15.5856C42.7125 18.0091 39.5574 19.0248 36.0912 19.0248C30.075 19.0248 26.7291 16.7974 25.8677 16.0774L23.9868 19.0248C27.3983 21.5142 31.0318 22.0719 36.0912 22.0719ZM53.4473 22.0381C55.2312 22.0381 57.8454 21.3503 57.8454 21.3503L57.0167 18.3032C57.0167 18.3032 55.583 18.893 54.1165 18.893C52.714 18.893 52.2356 18.533 52.2356 17.3213L52.2043 9.40152H56.9526V6.42035H52.2043V2.68707H48.7303V6.42196H46.2444V9.40152H48.7303V17.3936C48.7303 20.7669 50.2594 22.0381 53.4473 22.0719V22.0381ZM67.6593 25L77.7421 6.42035H73.9178L67.9329 17.7472L62.1715 6.42035H58.0283L65.9629 21.3181L63.885 25H67.6593ZM78.8256 21.5142H82.3622V0H78.8256V21.5142ZM87.6217 15.4217H103C102.969 8.90974 98.6661 6.02661 93.319 5.99447C87.6154 5.96233 83.7974 9.23759 83.7974 14.0203C83.7974 18.803 87.2386 22.0397 93.319 22.0397C97.8437 22.0076 100.355 20.9919 102.426 19.2884L100.609 16.8311C99.4947 17.8131 97.5826 18.8625 93.319 18.8625C90.8972 18.8946 88.061 17.879 87.6217 15.4217ZM0 21.4821H3.55065V0H0V21.4821ZM19.151 21.4821H23.2301V12.3489C23.1988 7.73014 20.9677 5.76466 15.2063 5.76466C12.242 5.76466 10.3048 6.71445 9.34957 7.23836V6.15679H5.49248V21.4805H9.47621V11.0391C9.82642 10.7113 12.0262 9.33563 15.0469 9.33563C18.4881 9.33563 19.1901 10.3176 19.1901 13.5607L19.151 21.4821Z" fill="black"/>
</svg>
