<svg width="338" height="128" viewBox="0 0 338 128" fill="none" xmlns="http://www.w3.org/2000/svg">
<g id="Style=solid, Fill=color">
<path id="Fill 1" fill-rule="evenodd" clip-rule="evenodd" d="M295.614 89.7801C299.698 89.7801 301.903 85.9335 302.72 81.023H325.102C322.243 115.233 275.11 115.477 271.026 88.3887V105.985H238.517V88.1432C235.658 105.575 225.692 107.949 221.363 107.949C217.687 107.949 208.702 104.921 205.435 95.7545L205.762 105.739C205.843 111.959 209.763 115.887 214.012 116.46L215.481 128H178.969L176.029 116.46C179.214 116.379 184.36 113.269 184.36 106.23V80.0409C183.216 86.5882 178.315 107.949 154.954 107.949C131.838 107.949 126.61 85.4425 125.629 82.1688C121.301 106.639 105.045 108.031 97.9389 107.949C85.1146 107.785 77.4355 98.9463 77.2729 98.7826C69.5946 90.925 68.0418 79.058 68.3694 66.2097C68.3694 63.5908 69.0229 58.5985 69.2671 56.1432C60.9362 65.0639 53.2579 64 44.1093 64.3274H36.431V78.977C36.431 84.8696 38.5548 88.3887 45.1704 88.4698V106.066H0V88.798C6.53471 88.7161 8.82104 84.8696 8.82104 78.977V26.7621C8.82104 25.5345 8.49512 17.4322 0.0816839 17.3504V0H48.6836C57.8313 0 64.3661 2.78261 68.7778 6.30179C76.8645 12.6854 78.4982 23.734 79.1516 31.8363C91.4859 21.0332 120.892 18.6598 125.793 50.9872C131.103 26.3529 149.236 24.4706 153.484 24.4706C161.081 24.4706 174.067 29.0537 178.315 41.4936V26.1074H204.945V36.0102C206.904 28.5627 213.522 24.4706 220.138 24.4706C226.591 24.4706 239.742 31.5908 243.09 58.844V22.5882C243.09 17.3504 239.905 14.6496 234.677 14.6496V0.163683H265.717V58.7621C268.576 32.8184 283.035 24.4706 295.205 24.4706C307.54 24.4706 316.361 31.3453 320.853 40.1841C326.571 51.4783 326.163 63.4271 325.837 71.202H288.099C287.936 72.6752 288.099 75.2123 288.18 77.5038C288.507 83.9685 290.549 89.8619 295.614 89.7801M100.511 89.78C104.595 89.78 106.8 85.9335 107.616 81.023H127.303C126.323 76.1125 126.159 75.0486 126.078 71.2831H92.9958C92.8324 72.757 92.9958 75.2941 93.0775 77.5857C93.4042 83.9685 95.528 89.8619 100.511 89.78M148.704 66.3726C148.704 79.3862 151.073 89.8619 156.873 89.9437C162.917 90.0256 165.041 79.3862 165.041 66.3726C165.041 53.3606 162.672 42.8849 156.873 42.8031C151.155 42.7212 148.704 53.3606 148.704 66.3726M100.429 42.312C95.3638 42.312 93.1592 48.4501 92.8324 54.9156C92.7508 57.1253 92.6691 57.2072 92.8324 58.844H107.781C107.944 57.2072 107.862 57.1253 107.781 54.9156C107.372 48.4501 105.412 42.312 100.429 42.312M297.45 42.8031C292.386 42.8031 290.344 48.4501 290.016 54.9156C289.936 57.1253 289.854 57.2072 290.016 58.844H304.965C305.128 57.2072 305.047 57.1253 304.965 54.9156C304.639 48.4501 302.515 42.8031 297.45 42.8031M208.333 78.2396C208.333 84.7869 209.966 89.78 214.541 89.78C219.687 89.78 222.71 82.8235 222.71 66.4552C222.71 48.532 219.932 42.312 215.113 42.1483C210.457 41.9028 208.088 45.913 208.333 54.0972V78.2396M38.431 44.6036H44.7198C50.4377 44.4399 52.3989 41.0026 52.3989 32.2455C52.3989 24.3069 49.6209 20.133 44.7198 20.133H38.431V44.6036" fill="#00ADEE"/>
<g id="Group">
<g id="Clipped">
<mask id="mask0_1709_7477" style="mask-type:luminance" maskUnits="userSpaceOnUse" x="243" y="86" width="24" height="15">
<path id="SVGID_1_" fill-rule="evenodd" clip-rule="evenodd" d="M244.348 92.9911C244.348 92.9911 243.291 93.2737 243.291 94.6999C243.291 94.7061 243.2 95.5356 244.187 95.9293C245.088 96.2881 266.716 100.582 266.716 100.582V90.7957V86.8258L244.348 92.9911Z" fill="white"/>
</mask>
<g mask="url(#mask0_1709_7477)">
<path id="Path" d="M239.84 88.7473L246.485 112.138L270.08 98.6602L263.434 75.2697L239.84 88.7473Z" fill="url(#paint0_linear_1709_7477)"/>
</g>
</g>
<g id="Clipped_2">
<mask id="mask1_1709_7477" style="mask-type:luminance" maskUnits="userSpaceOnUse" x="319" y="34" width="19" height="11">
<path id="SVGID_4_" fill-rule="evenodd" clip-rule="evenodd" d="M325.273 44.0949L336.188 41.0825C336.188 41.0825 337.296 40.7859 337.296 39.2126C337.296 39.2056 337.392 38.2921 336.357 37.8433C335.806 37.6049 319.965 34 319.965 34C319.965 34 322.15 37.1994 323.035 38.9003C323.919 40.6012 325.273 44.0949 325.273 44.0949Z" fill="white"/>
</mask>
<g mask="url(#mask1_1709_7477)">
<path id="Path_2" d="M340.929 45.5887L334.197 20.4657L309.199 34.3432L315.931 59.4662L340.929 45.5887Z" fill="url(#paint1_linear_1709_7477)"/>
</g>
</g>
<g id="Clipped_3">
<mask id="mask2_1709_7477" style="mask-type:luminance" maskUnits="userSpaceOnUse" x="243" y="39" width="95" height="57">
<path id="SVGID_9_" fill-rule="evenodd" clip-rule="evenodd" d="M336.166 40.3536L294.222 51.5912V51.5842L244.528 64.9C243.201 65.2552 243.311 66.5887 243.311 66.5887V93.8651V95.1006C243.311 94.2414 244.433 93.95 244.433 93.95L292.194 81.1531V81.1601L335.723 69.4964C337.435 68.9154 337.288 67.126 337.288 67.126V40.4385V39.2039C337.288 40.0622 336.166 40.3536 336.166 40.3536" fill="white"/>
</mask>
<g mask="url(#mask2_1709_7477)">
<path id="Path_3" d="M243.203 120.35L337.436 95.0997V13.954L243.203 39.2039V120.35Z" fill="url(#paint2_linear_1709_7477)"/>
</g>
</g>
<g id="en espanol">
<path id="Fill 9" fill-rule="evenodd" clip-rule="evenodd" d="M254.238 85.1872V82.9578L250.582 83.9377V78.5803L253.869 77.6997V75.5158L250.582 76.3965V71.5456L254.238 70.5658V68.3356L248.559 69.8575V86.7092L254.238 85.1872ZM264.313 82.488V65.6355L262.33 66.1678V76.0071L258.186 67.2316L257.214 67.5379V84.3905L259.198 83.8582V73.8349L263.36 82.789L264.313 82.488ZM277.384 78.9859V76.7556L273.728 77.7354V72.379L277.014 71.4974V69.3136L273.728 70.1943V65.3434L277.384 64.3636V62.1333L271.705 63.6553V80.5078L277.384 78.9859ZM286.214 72.4808C286.214 70.4122 285.261 69.1734 283.803 67.7246C282.597 66.5769 281.935 65.857 281.935 64.7539C281.935 63.6499 282.46 62.7505 283.297 62.5263C284.016 62.3334 284.541 62.5602 285.261 63.0577L286.02 60.6935C285.184 60.2272 284.406 59.9995 283.238 60.3121C281.274 60.8382 279.893 63.1399 279.893 65.439C279.893 67.3012 280.866 68.466 282.207 69.8307C283.55 71.1946 284.172 71.9253 284.172 73.1891C284.172 74.3851 283.725 75.2863 282.733 75.5525C281.935 75.7659 281.079 75.4203 280.321 74.9344L279.581 77.2468C280.612 77.822 281.799 78.0552 282.869 77.7684C284.911 77.2218 286.214 74.9639 286.214 72.4808V72.4808ZM295.511 62.7255C295.511 59.736 294.169 57.4977 291.037 58.3373C290.124 58.582 289.423 58.8384 288.821 59.1152V75.9213L290.843 75.3792V69.586C291.018 69.5619 291.174 69.5199 291.368 69.4681C294.169 68.7178 295.511 65.5533 295.511 62.7255V62.7255ZM293.469 63.3186C293.469 65.5488 292.633 67.0136 291.329 67.3629C291.154 67.4102 290.998 67.429 290.843 67.4477V60.6194C291.057 60.539 291.077 60.5113 291.329 60.4434C292.613 60.0995 293.469 61.1115 293.469 63.3186V63.3186ZM304.536 71.71L301.152 55.6497L299.79 56.015L296.405 73.8885L298.37 73.3624L299.051 69.6164L301.832 68.8715L302.513 72.2522L304.536 71.71ZM301.443 66.86L299.44 67.3968L300.452 61.0793L301.443 66.86ZM313.619 69.2761V52.4244L311.635 52.9559V62.796L307.493 54.0196L306.52 54.3269V71.1786L308.504 70.6471V60.6229L312.666 69.578L313.619 69.2761ZM312.744 50.3826L312.083 49.3188C311.752 49.9128 311.422 50.2084 311.052 50.3076C310.741 50.3906 310.527 50.3558 310.196 50.2147C309.884 50.0914 309.554 50.0191 309.146 50.1289C308.563 50.2852 307.901 50.9221 307.473 51.7036L308.095 52.7093C308.406 52.1886 308.776 51.8367 309.146 51.7376C309.437 51.6598 309.709 51.7018 310.041 51.843C310.371 51.9841 310.662 52.0207 311.091 51.9064C311.655 51.7554 312.316 51.1186 312.744 50.3826V50.3826ZM324.375 57.888C324.375 53.0595 323.072 49.6386 320.486 50.3317C317.801 51.0507 316.498 55.2629 316.498 60.0906C316.498 64.9182 317.782 68.4142 320.369 67.721C323.053 67.002 324.375 62.7157 324.375 57.888V57.888ZM322.294 58.4918C322.294 62.5379 321.614 65.2719 320.427 65.5899C319.26 65.9025 318.579 63.5329 318.579 59.4868C318.579 55.4407 319.26 52.7522 320.427 52.4396C321.614 52.1216 322.294 54.4448 322.294 58.4918V58.4918ZM332.505 64.2162V61.9859L329.257 62.8559V48.2345L327.234 48.7767V65.6283L332.505 64.2162Z" fill="white"/>
<path id="Fill 11" fill-rule="evenodd" clip-rule="evenodd" d="M312.297 49.8154L332.539 44.3911L332.501 44.25L312.26 49.6734L312.297 49.8154ZM248.577 89.788L332.539 67.2905L332.501 67.1485L248.539 89.646L248.577 89.788ZM248.577 66.8913L309.337 50.6112L309.299 50.4692L248.539 66.7493L248.577 66.8913Z" fill="white"/>
</g>
</g>
</g>
<defs>
<linearGradient id="paint0_linear_1709_7477" x1="246.051" y1="90.7124" x2="253.065" y2="107.322" gradientUnits="userSpaceOnUse">
<stop stop-color="#5E0B0C"/>
<stop offset="0.2098" stop-color="#82161D"/>
<stop offset="0.4548" stop-color="#AB1C2B"/>
<stop offset="0.6761" stop-color="#CB1E34"/>
<stop offset="0.8635" stop-color="#E11E3A"/>
<stop offset="0.9946" stop-color="#EC1E3C"/>
<stop offset="1" stop-color="#EC1E3C"/>
</linearGradient>
<linearGradient id="paint1_linear_1709_7477" x1="334.733" y1="43.5977" x2="327.269" y2="25.157" gradientUnits="userSpaceOnUse">
<stop stop-color="#5E0B0C"/>
<stop offset="0.2098" stop-color="#82161D"/>
<stop offset="0.4548" stop-color="#AB1C2B"/>
<stop offset="0.6761" stop-color="#CB1E34"/>
<stop offset="0.8635" stop-color="#E11E3A"/>
<stop offset="0.9946" stop-color="#EC1E3C"/>
<stop offset="1" stop-color="#EC1E3C"/>
</linearGradient>
<linearGradient id="paint2_linear_1709_7477" x1="254.466" y1="132.822" x2="349.535" y2="112.84" gradientUnits="userSpaceOnUse">
<stop stop-color="#9E1C25"/>
<stop offset="0.0473" stop-color="#BC1E2A"/>
<stop offset="0.1091" stop-color="#E31E2E"/>
<stop offset="0.3669" stop-color="#E61E33"/>
<stop offset="0.6731" stop-color="#EC1E3C"/>
<stop offset="0.8313" stop-color="#E81E3B"/>
<stop offset="0.8911" stop-color="#DC1E38"/>
<stop offset="0.9341" stop-color="#CD1E33"/>
<stop offset="0.9689" stop-color="#B81E2D"/>
<stop offset="0.9988" stop-color="#A01C25"/>
<stop offset="1" stop-color="#9E1C25"/>
</linearGradient>
</defs>
</svg>
