<svg width="94" height="27" viewBox="0 0 94 27" fill="none" xmlns="http://www.w3.org/2000/svg">
<path fill-rule="evenodd" clip-rule="evenodd" d="M26.8213 4.17934C26.8177 4.38735 26.8571 4.59395 26.9372 4.78711C27.0172 4.98027 27.1363 5.15613 27.2875 5.30444C27.4387 5.45274 27.6189 5.57052 27.8177 5.65092C28.0166 5.73132 28.23 5.77273 28.4456 5.77273C28.6612 5.77273 28.8746 5.73132 29.0734 5.65092C29.2723 5.57052 29.4525 5.45274 29.6037 5.30444C29.7549 5.15613 29.874 4.98027 29.954 4.78711C30.034 4.59395 30.0734 4.38735 30.0699 4.17934C30.0629 3.76809 29.8887 3.37597 29.5848 3.08754C29.281 2.7991 28.8718 2.63745 28.4456 2.63745C28.0194 2.63745 27.6102 2.7991 27.3063 3.08754C27.0025 3.37597 26.8283 3.76809 26.8213 4.17934V4.17934Z" fill="#639A3A"/>
<mask id="mask0_279_815" style="mask-type:alpha" maskUnits="userSpaceOnUse" x="0" y="0" width="94" height="27">
<path d="M0 27H94V0H0V27Z" fill="white"/>
</mask>
<g mask="url(#mask0_279_815)">
<path fill-rule="evenodd" clip-rule="evenodd" d="M82.7812 22.2847H85.6306V0.163574H82.7812V22.2847ZM87.6583 22.3046H90.5068V0.18345H87.6583V22.3046Z" fill="#639A3A"/>
<path d="M92.4719 20.3396C91.8921 20.3396 91.4504 20.7659 91.4504 21.3258C91.4504 21.8857 91.8921 22.3119 92.4723 22.3119C93.0525 22.3119 93.4943 21.8857 93.4943 21.3258C93.4943 20.7392 93.0525 20.3396 92.4723 20.3396H92.4719ZM92.4767 22.1563C91.9793 22.1563 91.6204 21.8095 91.6204 21.33C91.6204 20.85 91.9797 20.5037 92.4767 20.5037C92.9737 20.5037 93.333 20.8504 93.333 21.33C93.333 21.8095 92.9737 22.1563 92.4767 22.1563Z" fill="#639A3A"/>
<path d="M92.8864 21.1655C92.8864 20.9528 92.7208 20.8462 92.5275 20.8462H92.0577V21.8057H92.2791V21.459H92.3895L92.6932 21.8057H92.9417V21.7787L92.638 21.4852C92.776 21.4052 92.8864 21.3253 92.8864 21.1655V21.1655ZM92.5275 21.2987H92.3067V21.0056H92.5275C92.6108 21.0056 92.6932 21.0589 92.6932 21.1655C92.6656 21.2454 92.6104 21.2987 92.5275 21.2987Z" fill="#639A3A"/>
<path fill-rule="evenodd" clip-rule="evenodd" d="M49.5775 16.6833C49.5494 16.6829 49.5231 16.6799 49.4955 16.6799C49.5231 16.6655 49.5499 16.6685 49.577 16.6833H49.5775ZM48.293 16.0151C46.9897 16.0151 45.7495 14.8492 45.7495 12.2108C45.7495 9.90991 46.7991 8.46787 48.2926 8.46787C49.8509 8.46787 50.869 9.90991 50.869 12.2413C50.869 14.5422 49.8829 16.0151 48.2926 16.0151H48.293ZM46.1904 16.5594C46.1991 16.5454 46.2105 16.5416 46.2276 16.5505L46.1904 16.5594ZM51.3168 16.9675C52.7691 16.1902 53.6934 14.5299 53.6934 12.4561C53.6934 10.7713 53.1092 9.3665 52.2625 8.51988C53.3665 8.59685 54.1325 8.35242 54.1325 8.35242L53.6425 6.34456C53.6425 6.34456 52.8055 6.53486 51.6232 6.53486C50.3996 6.53486 49.4613 6.25871 48.2926 6.25871C44.8853 6.25871 43.0601 8.47886 43.0601 11.9131C43.0601 14.0478 43.8888 15.9597 45.3656 16.8668C44.6644 17.2284 43.9803 17.7993 43.5702 18.2213L45.1772 19.9425C45.8652 19.2176 47.0887 18.4399 48.6804 18.4399C50.6384 18.4399 52.1328 19.7289 52.1328 21.5993C52.1328 23.548 50.5157 24.6111 48.4354 24.6111C46.0287 24.6111 44.3476 23.0287 44.3476 23.0287L42.709 24.7287C43.958 25.9986 46.1102 27 48.5301 27C52.0053 27 54.8253 25.0831 54.8253 21.8154C54.8253 19.4392 53.377 17.6373 51.3168 16.9675V16.9675ZM13.3223 20.3624C12.1614 20.3624 11.1412 19.5124 11.1412 16.9353C11.1412 14.7498 11.8906 13.5087 13.2619 13.5087C14.7562 13.5087 15.6778 14.9368 15.6778 16.9049C15.6778 18.6691 14.637 20.3624 13.3219 20.3624H13.3223ZM19.2416 19.9463C18.6298 19.8279 18.2818 19.4934 18.2818 18.47V11.7812C18.2818 7.58361 16.7647 6.1052 13.3605 6.1052C11.313 6.1052 9.79411 6.94252 9.79411 6.94252L9.841 9.18889C9.841 9.18889 11.4677 8.4463 12.9354 8.4463C14.9105 8.4463 15.6778 9.71073 15.6778 11.4437V12.6092C15.0104 11.6585 13.8241 11.3211 12.7434 11.3211C10.2635 11.3211 8.29228 13.2232 8.29228 16.9049C8.29228 20.6478 10.4322 22.6417 12.8486 22.6417C13.8491 22.6417 15.2133 22.1131 16.1257 20.6783C16.3448 21.5701 17.0311 22.4265 18.7521 22.4265C19.7004 22.4265 20.2105 22.2785 20.2105 22.2785V19.9653C20.2105 19.9653 19.8538 20.0642 19.2416 19.9463V19.9463ZM23.7611 3.36533L20.9117 4.22759V6.53486H19.1666V9.06921H20.9117V18.4391C20.9117 21.2919 22.1712 22.4578 24.6507 22.4578C25.0324 22.4578 25.255 22.4269 25.6367 22.3047V19.994C25.4141 20.0554 25.3186 20.0554 25.1279 20.0554C23.9833 20.0554 23.7606 19.7179 23.7606 18.1532V9.06921H25.6363V6.53486H23.7606V3.36533H23.7611ZM27.0259 22.3047H29.8745V6.53486H27.0259V22.3047ZM37.9279 6.1052C36.8104 6.1052 35.3962 6.67906 34.4211 8.17565V6.53486H31.8049V22.3043H34.6534V12.1368C34.6534 10.3269 36.1434 8.51692 37.4975 8.51692C38.6194 8.51692 38.9582 9.30011 38.9582 10.644V22.3047H41.8067V10.5231C41.8067 8.98929 41.457 8.00735 40.7896 7.2711C40.1217 6.50399 39.0726 6.1052 37.9279 6.1052V6.1052ZM69.7569 0.183955L66.677 14.6792L63.9779 0H61.7578L59.0232 14.6686L55.8504 0.183955H52.9699L58.2484 22.55H59.9391L62.8757 7.23769L65.733 22.55H67.4557L72.7329 0.183532L69.7569 0.183955ZM76.4921 8.38456C77.8953 8.38456 78.6035 9.84182 78.6035 12.9162H74.1269C74.1269 9.786 75.1721 8.38456 76.4921 8.38456ZM76.7515 20.2089C75.1165 20.2089 74.0205 18.492 74.0205 15.8603C74.0205 15.4687 74.0183 15.3148 74.0183 15.2226L81.2448 15.2197C81.2763 14.2809 81.293 13.9903 81.293 13.4994C81.293 8.91782 79.8849 6.1052 76.4921 6.1052C73.009 6.1052 71.31 9.16986 71.31 14.4504C71.31 19.7517 73.52 22.6417 76.6713 22.6417C78.8441 22.6417 80.4068 21.3473 81.3245 19.1047L79.3042 17.9883C78.6368 19.2477 77.9694 20.2089 76.7515 20.2089V20.2089ZM0 22.3047H8.00698V19.5868H2.91251V12.2413H7.31238V9.52297H2.91295V2.90227H8.0679V0.183955H0V22.3047Z" fill="#639A3A"/>
</g>
</svg>
