<svg width="138" height="26" viewBox="0 0 138 26" fill="none" xmlns="http://www.w3.org/2000/svg">
<g clip-path="url(#clip0_279_865)">
<path d="M13.8624 7.0764C13.8624 7.19147 13.8341 7.30653 13.7773 7.42159L8.68353 19.8773C8.58421 20.1505 8.4707 20.3088 8.32881 20.3807C8.18692 20.4526 7.98828 20.4814 7.71869 20.4814H6.07279C5.83159 20.4814 5.63294 20.4526 5.46268 20.3807C5.29241 20.3088 5.1789 20.1505 5.07958 19.906L0.0567551 7.26338C0.0141888 7.10517 0 7.01887 0 6.97572C0 6.71683 0.198643 6.573 0.595928 6.573H3.83097C4.08637 6.573 4.2992 6.63053 4.44109 6.75998C4.58297 6.88942 4.69648 7.06202 4.76743 7.29215L6.52684 12.5276C6.62616 12.8296 6.71129 13.1748 6.8248 13.5487C6.93831 13.9227 7.00925 14.2679 7.09439 14.5699H7.12276C7.19371 14.2967 7.29303 13.9802 7.39235 13.6207C7.49167 13.2467 7.59099 12.9015 7.69031 12.5851L9.57742 7.29215C9.67674 7.00449 9.79025 6.81751 9.93214 6.71683C10.074 6.61615 10.301 6.573 10.6274 6.573H13.2097C13.6354 6.58738 13.8624 6.74559 13.8624 7.0764Z" fill="#0A383E"/>
<path d="M26.5046 13.9371C26.5046 14.268 26.4337 14.4981 26.2776 14.5988C26.1215 14.6994 25.8661 14.757 25.5256 14.757H17.8353C18.0056 15.6343 18.417 16.3103 19.0981 16.7706C19.7792 17.2308 20.5312 17.461 21.3825 17.461C21.9926 17.461 22.5743 17.4034 23.1561 17.2596C23.7378 17.1302 24.2912 16.9576 24.8445 16.7274C24.9581 16.6699 25.0716 16.6411 25.1709 16.6411C25.3979 16.6411 25.5398 16.7706 25.6107 17.0295C25.6249 17.1445 25.6675 17.3028 25.7384 17.5041C25.8094 17.7055 25.8661 17.9212 25.9229 18.137C25.9796 18.3527 26.0222 18.5541 26.079 18.7554C26.1215 18.9568 26.1499 19.1006 26.1499 19.2157C26.1499 19.4027 26.0932 19.5321 25.9938 19.604C25.8945 19.676 25.7668 19.7479 25.6249 19.8342C24.8871 20.1794 24.0783 20.4095 23.1986 20.5677C22.3048 20.7115 21.4676 20.7978 20.6589 20.7978C19.5521 20.7978 18.5731 20.6252 17.6934 20.2944C16.8137 19.9636 16.0617 19.489 15.4516 18.8705C14.8415 18.252 14.359 17.5041 14.0185 16.6124C13.678 15.7206 13.5077 14.7138 13.5077 13.6063C13.5077 12.5276 13.678 11.5496 14.0327 10.6722C14.3732 9.79484 14.8698 9.03254 15.4941 8.41407C16.1184 7.7956 16.8563 7.30658 17.736 6.96139C18.6157 6.6162 19.5663 6.4436 20.6305 6.4436C21.5102 6.4436 22.3048 6.60182 23.0284 6.91824C23.752 7.23467 24.3763 7.66616 24.8871 8.22709C25.5824 8.97501 26.0364 9.79484 26.235 10.7154C26.4337 11.6359 26.533 12.5851 26.533 13.5776L26.5046 13.9371ZM22.475 12.0961C22.475 11.7941 22.4325 11.5064 22.3473 11.2188C22.2622 10.9311 22.1345 10.6722 21.95 10.4421C21.7656 10.2119 21.5386 10.025 21.2832 9.88114C21.0136 9.73731 20.7156 9.67978 20.3609 9.67978C19.6656 9.67978 19.0981 9.92429 18.6724 10.3989C18.2468 10.8736 17.9772 11.4489 17.892 12.0961H22.475Z" fill="#0A383E"/>
<path d="M50.8809 7.33534C50.8809 7.39287 50.8668 7.49355 50.8242 7.63738L45.546 21.4738C45.2338 22.308 44.8933 23.0128 44.496 23.5881C44.0987 24.1634 43.673 24.6381 43.1622 24.9976C42.6656 25.3572 42.0697 25.6161 41.4028 25.7743C40.736 25.9325 40.4238 25.8462 39.5299 25.8462C39.2178 25.8462 38.934 25.8319 38.6786 25.8031C38.4232 25.7743 38.1536 25.7312 37.884 25.6736C37.5577 25.6017 37.3874 25.4291 37.3874 25.1415C37.3874 24.9976 37.4016 25.0264 37.4158 24.9401L37.657 23.1854C37.6996 22.9265 37.7563 22.7539 37.8415 22.682C37.9266 22.6101 38.0401 22.5669 38.182 22.5669H38.2955H38.3806C38.5651 22.5813 38.7354 22.6101 38.9056 22.6245C39.0759 22.6388 39.232 22.6532 39.3738 22.6532C39.7853 22.6532 40.3812 22.682 40.736 22.4519C41.0339 22.2505 41.3603 21.9485 41.5589 21.6464C41.7008 21.4163 41.8569 21.1574 41.9988 20.8697L42.3819 19.8773L37.5861 7.59423C37.5435 7.4504 37.5293 7.34972 37.5293 7.32095C37.5293 7.17712 37.5719 7.06206 37.6712 6.97576C37.7563 6.88946 37.884 6.84631 38.0259 6.84631H41.19C41.6157 6.84631 41.8853 7.03329 42.013 7.40725L44.4676 14.383L46.5676 7.65176C46.7378 7.11959 47.0642 6.84631 47.5891 6.84631H50.4269C50.7249 6.8607 50.8809 7.01891 50.8809 7.33534Z" fill="#0A383E"/>
<path d="M90.1413 0.71915C90.1413 0.258894 89.9426 0 89.5453 0L86.6792 0.57532C86.2536 0.632852 85.9981 0.805447 85.9981 1.36638V20.5101L88.8359 20.4958C89.5453 20.4958 90.1129 19.9061 90.1129 19.2013L90.1413 0.71915Z" fill="#0A383E"/>
<path d="M96.1289 0.71915C96.1289 0.258894 95.9303 0 95.533 0L92.6669 0.57532C92.2412 0.632852 91.9858 0.805447 91.9858 1.36638V20.5101L94.8236 20.4958C95.533 20.4958 96.1006 19.9061 96.1006 19.2013L96.1289 0.71915Z" fill="#0A383E"/>
<path d="M71.2276 7.22027C71.2276 7.29219 71.2135 7.39287 71.1709 7.49355L67.5102 19.6328C67.4392 19.8917 67.3257 20.093 67.1838 20.2225C67.042 20.3519 66.8007 20.4239 66.5028 20.4239H64.3745C64.0765 20.4239 63.8637 20.3519 63.736 20.2225C63.5941 20.0787 63.4806 19.8773 63.3954 19.5896L61.3948 14.685H61.3381L59.4935 19.6759C59.4084 19.9348 59.2807 20.1218 59.1388 20.2513C58.9969 20.3807 58.7699 20.4382 58.4577 20.4382H56.2301C55.9747 20.4382 55.7619 20.3663 55.6058 20.2081C55.4497 20.0643 55.3362 19.8629 55.2653 19.6184L51.6471 7.49355C51.6329 7.43602 51.6188 7.3641 51.6188 7.26342C51.6188 7.11959 51.6897 7.00453 51.8174 6.94699C51.9451 6.88946 52.1154 6.84631 52.314 6.84631H55.1943C55.4923 6.84631 55.6909 6.90385 55.8328 7.03329C55.9605 7.14836 56.0457 7.32095 56.074 7.52231L57.5355 14.6419H57.5639L59.8482 7.52231C59.9759 7.07644 60.1036 6.84631 60.5719 6.84631H62.4732C62.984 6.84631 63.2961 7.04768 63.4096 7.43602L65.4244 14.7282H65.4528L67.0703 7.57985C67.1129 7.34972 67.198 7.17712 67.3257 7.04768C67.4676 6.91823 67.6804 6.84631 67.9642 6.84631H70.7452C70.9439 6.84631 71.0716 6.88946 71.1425 6.96138C71.1993 7.04768 71.2276 7.13397 71.2276 7.22027Z" fill="#0A383E"/>
<path d="M84.2387 13.9371C84.2387 14.268 84.1678 14.4981 83.9975 14.5988C83.8415 14.6994 83.5861 14.757 83.2455 14.757H75.5552C75.7255 15.6343 76.137 16.3103 76.818 16.7706C77.4991 17.2308 78.2511 17.461 79.1024 17.461C79.7125 17.461 80.2943 17.4034 80.876 17.2596C81.4577 17.1302 82.0111 16.9576 82.5645 16.7274C82.678 16.6699 82.7773 16.6411 82.8908 16.6411C83.1036 16.6411 83.2597 16.7706 83.3307 17.0295C83.3448 17.1445 83.3874 17.3028 83.4584 17.5041C83.5293 17.7055 83.5861 17.9212 83.6428 18.137C83.6996 18.3527 83.7421 18.5541 83.7989 18.7554C83.8415 18.9568 83.8698 19.1006 83.8698 19.2157C83.8698 19.4027 83.8131 19.5321 83.7138 19.604C83.6144 19.676 83.4867 19.7479 83.3449 19.8342C82.607 20.1794 81.7983 20.4095 80.9186 20.5677C80.0247 20.7115 79.1875 20.7978 78.3788 20.7978C77.2721 20.7978 76.293 20.6252 75.4133 20.2944C74.5336 19.9636 73.7816 19.489 73.1715 18.8705C72.5614 18.252 72.079 17.5041 71.7384 16.6124C71.3979 15.7206 71.2276 14.7138 71.2276 13.6063C71.2276 12.5276 71.3979 11.5496 71.7526 10.6722C72.1073 9.79484 72.5898 9.03254 73.2141 8.41407C73.8384 7.7956 74.5904 7.30658 75.4559 6.96139C76.3214 6.6162 77.2862 6.4436 78.3504 6.4436C79.2301 6.4436 80.0247 6.60182 80.7625 6.91824C81.4861 7.23467 82.1104 7.66616 82.6212 8.22709C83.3165 8.97501 83.7705 9.79484 83.9692 10.7154C84.1678 11.6359 84.2671 12.5851 84.2671 13.5776L84.2387 13.9371ZM80.2091 12.0961C80.2091 11.7941 80.1666 11.5064 80.0814 11.2188C79.9963 10.9311 79.8686 10.6722 79.6841 10.4421C79.4997 10.2119 79.2727 10.025 79.0173 9.88114C78.7477 9.73731 78.4497 9.67978 78.095 9.67978C77.3998 9.67978 76.8322 9.92429 76.4065 10.3989C75.9809 10.8879 75.7113 11.4489 75.6262 12.0961H80.2091Z" fill="#0A383E"/>
<path d="M36.3375 6.78877C36.0821 6.73124 35.7841 6.67371 35.5713 6.67371C33.9537 6.67371 33.1592 7.09081 32.1659 8.29898L32.1092 7.46477C32.0808 7.04766 31.8396 6.90383 31.3146 6.90383H29.016C28.5478 6.90383 28.2215 7.04766 28.2215 7.70928V20.4814L31.3288 20.467C31.8254 20.467 32.2369 20.0499 32.2369 19.5465V11.3626C32.9321 10.6722 34.0105 10.442 34.9186 10.442C35.3868 10.442 35.5287 10.5283 35.7983 10.5283C36.0537 10.5283 36.1814 10.3845 36.2381 10.0825L36.6496 7.46477C36.6922 7.14834 36.6922 6.87507 36.3375 6.78877Z" fill="#0A383E"/>
<path d="M110.658 8.41406C109.58 8.41406 108.431 8.81679 107.579 9.4784C106.87 8.55789 105.692 8.41406 105.039 8.41406C104.075 8.41406 103.11 8.74487 102.315 9.36334V9.17636C102.315 8.81679 102.117 8.60104 101.79 8.60104H101.209C100.882 8.60104 100.684 8.81679 100.684 9.17636V17.7342C100.684 18.0938 100.882 18.3096 101.209 18.3096H101.819C102.145 18.3096 102.344 18.0938 102.344 17.7342V10.9311C103.124 10.2263 104.018 9.8236 104.798 9.8236C106.118 9.8236 106.643 10.514 106.643 12.2687V17.7486C106.643 18.1082 106.841 18.3239 107.168 18.3239H107.778C108.104 18.3239 108.303 18.1082 108.303 17.7486V12.1105C108.303 11.5496 108.26 11.0749 108.147 10.6434C108.856 10.14 109.722 9.83798 110.389 9.83798C111.793 9.83798 112.347 10.5284 112.347 12.2831V17.763C112.347 18.1226 112.545 18.3383 112.872 18.3383H113.482C113.808 18.3383 114.007 18.1226 114.007 17.763V12.1105C113.964 9.66538 112.843 8.41406 110.658 8.41406Z" fill="#41B76B"/>
<path d="M117.072 5.70996C116.504 5.70996 116.078 6.12707 116.078 6.688C116.078 7.24894 116.504 7.66605 117.072 7.66605C117.653 7.66605 118.093 7.24894 118.093 6.688C118.093 6.12707 117.653 5.70996 117.072 5.70996Z" fill="#41B76B"/>
<path d="M117.37 8.61536H116.774C116.447 8.61536 116.249 8.8311 116.249 9.19068V17.7486C116.249 18.1081 116.447 18.3239 116.774 18.3239H117.384C117.71 18.3239 117.909 18.1081 117.909 17.7486V9.19068C117.895 8.8311 117.71 8.61536 117.37 8.61536Z" fill="#41B76B"/>
<path d="M124.819 8.41406C123.769 8.41406 122.705 8.75925 121.867 9.37772V9.17636C121.867 8.81679 121.669 8.60104 121.342 8.60104H120.746C120.42 8.60104 120.221 8.81679 120.221 9.17636V17.7342C120.221 18.0938 120.42 18.3096 120.746 18.3096H121.357C121.683 18.3096 121.882 18.0938 121.882 17.7342V10.9311C122.605 10.2839 123.698 9.8236 124.506 9.8236C126.067 9.8236 126.379 10.7585 126.379 12.2687V17.7486C126.379 18.1082 126.578 18.3239 126.904 18.3239H127.514C127.841 18.3239 128.039 18.1082 128.039 17.7486V12.0961C128.039 9.62223 126.99 8.41406 124.819 8.41406Z" fill="#41B76B"/>
<path d="M137.589 4.25732C137.574 4.25732 137.56 4.25732 137.532 4.25732L136.78 4.35801C136.326 4.40115 136.326 4.77511 136.326 4.93332V9.27699C135.645 8.70167 134.666 8.42839 133.97 8.42839C131.402 8.42839 129.614 10.5139 129.614 13.4912C129.614 15.9075 130.679 18.4965 133.687 18.4965C134.68 18.4965 135.673 18.1225 136.397 17.4897V17.763C136.397 18.1513 136.581 18.3383 136.978 18.3383H137.532C137.801 18.3383 137.986 18.1081 137.986 17.763V4.78949C138 4.27171 137.659 4.25732 137.589 4.25732ZM136.34 11.2331V15.7781C135.815 16.526 134.765 17.087 133.885 17.087C132.324 17.087 131.317 15.663 131.317 13.4481C131.317 11.2187 132.367 9.83793 134.07 9.83793C134.978 9.83793 135.928 10.4132 136.34 11.2331Z" fill="#41B76B"/>
</g>
<defs>
<clipPath id="clip0_279_865">
<rect width="138" height="25.875" fill="white"/>
</clipPath>
</defs>
</svg>
