<svg width="270" height="50" viewBox="0 0 270 50" fill="none" xmlns="http://www.w3.org/2000/svg">
<g clip-path="url(#clip0_273_1210)">
<path d="M27.0265 13.6743C27.0265 13.8966 26.9711 14.119 26.8605 14.3413L16.9296 38.4103C16.7359 38.9383 16.5146 39.2441 16.238 39.383C15.9614 39.522 15.5741 39.5776 15.0485 39.5776H11.8396C11.3694 39.5776 10.9821 39.522 10.6501 39.383C10.3182 39.2441 10.0969 38.9383 9.90325 38.4659L0.110651 14.0356C0.0276627 13.7299 0 13.5631 0 13.4797C0 12.9795 0.387278 12.7015 1.16183 12.7015H7.46893C7.96686 12.7015 8.3818 12.8127 8.65843 13.0628C8.93506 13.313 9.15636 13.6465 9.29467 14.0912L12.7249 24.2079C12.9185 24.7916 13.0845 25.4586 13.3058 26.1812C13.5271 26.9039 13.6654 27.5709 13.8314 28.1546H13.8867C14.025 27.6265 14.2186 27.015 14.4123 26.3202C14.6059 25.5976 14.7996 24.9306 14.9932 24.3191L18.6723 14.0912C18.866 13.5353 19.0873 13.174 19.3639 12.9795C19.6405 12.7849 20.0831 12.7015 20.7194 12.7015H25.754C26.5839 12.7293 27.0265 13.0351 27.0265 13.6743Z" fill="white"/>
<path d="M51.674 26.9317C51.674 27.5709 51.5356 28.0156 51.2314 28.2102C50.9271 28.4047 50.4291 28.5159 49.7652 28.5159H34.772C35.104 30.2113 35.9062 31.5176 37.234 32.4069C38.5618 33.2963 40.028 33.741 41.6877 33.741C42.8772 33.741 44.0114 33.6298 45.1456 33.3519C46.2797 33.1018 47.3586 32.7683 48.4374 32.3236C48.6587 32.2124 48.88 32.1568 49.0737 32.1568C49.5163 32.1568 49.7929 32.4069 49.9312 32.9072C49.9589 33.1296 50.0419 33.4353 50.1802 33.8244C50.3185 34.2135 50.4291 34.6304 50.5398 35.0473C50.6504 35.4642 50.7334 35.8533 50.8441 36.2424C50.9271 36.6315 50.9824 36.9094 50.9824 37.1318C50.9824 37.4931 50.8717 37.7432 50.6781 37.8822C50.4845 38.0212 50.2355 38.1601 49.9589 38.3269C48.5204 38.9939 46.9436 39.4386 45.2285 39.7444C43.4858 40.0223 41.8537 40.189 40.2769 40.189C38.1192 40.189 36.2105 39.8555 34.4954 39.2163C32.7803 38.577 31.3142 37.6599 30.1247 36.4648C28.9352 35.2696 27.9947 33.8244 27.3308 32.1012C26.6669 30.378 26.3349 28.4325 26.3349 26.2924C26.3349 24.2079 26.6669 22.318 27.3584 20.6226C28.0223 18.9272 28.9905 17.4542 30.2077 16.2591C31.4248 15.064 32.8633 14.119 34.5784 13.452C36.2935 12.7849 38.1469 12.4514 40.2216 12.4514C41.9367 12.4514 43.4858 12.7571 44.8966 13.3686C46.3074 13.98 47.5245 14.8138 48.5204 15.8978C49.8759 17.343 50.7611 18.9272 51.1484 20.706C51.5356 22.4848 51.7293 24.3191 51.7293 26.2369L51.674 26.9317ZM43.8177 23.3741C43.8177 22.7905 43.7348 22.2346 43.5688 21.6788C43.4028 21.1229 43.1538 20.6226 42.7942 20.1779C42.4346 19.7332 41.992 19.3719 41.4941 19.094C40.9685 18.8161 40.3876 18.7049 39.696 18.7049C38.3405 18.7049 37.234 19.1774 36.4041 20.0946C35.5743 21.0117 35.0487 22.1235 34.8827 23.3741H43.8177Z" fill="white"/>
<path d="M99.1985 14.1746C99.1985 14.2858 99.1708 14.4803 99.0879 14.7582L88.7973 41.4953C88.1887 43.1073 87.5248 44.4692 86.7503 45.5809C85.9757 46.6926 85.1459 47.6098 84.15 48.3046C83.1818 48.9995 82.02 49.4998 80.7198 49.8055C79.4197 50.1112 78.8111 49.9444 77.0683 49.9444C76.4598 49.9444 75.9065 49.9166 75.4086 49.8611C74.9106 49.8055 74.3851 49.7221 73.8595 49.6109C73.2232 49.472 72.8913 49.1384 72.8913 48.5826C72.8913 48.3046 72.9189 48.3602 72.9466 48.1935L73.4169 44.8027C73.4998 44.3024 73.6105 43.9689 73.7765 43.8299C73.9425 43.691 74.1638 43.6076 74.4404 43.6076H74.6617H74.8277C75.1873 43.6354 75.5192 43.691 75.8512 43.7188C76.1831 43.7466 76.4874 43.7744 76.764 43.7744C77.5663 43.7744 78.7281 43.8299 79.4197 43.3853C80.0006 42.9961 80.6368 42.4125 81.0241 41.8288C81.3007 41.3841 81.605 40.8839 81.8816 40.328L82.6285 38.4103L73.2785 14.6749C73.1956 14.3969 73.1679 14.2024 73.1679 14.1468C73.1679 13.8689 73.2509 13.6465 73.4445 13.4798C73.6105 13.313 73.8595 13.2296 74.1361 13.2296H80.3049C81.1348 13.2296 81.6603 13.5909 81.9093 14.3135L86.695 27.7933L90.789 14.786C91.121 13.7577 91.7572 13.2296 92.7808 13.2296H98.3133C98.8942 13.2574 99.1985 13.5631 99.1985 14.1746Z" fill="white"/>
<path d="M175.741 1.38966C175.741 0.500278 175.354 0 174.579 0L168.992 1.11173C168.162 1.2229 167.664 1.55642 167.664 2.64036V39.6331L173.196 39.6053C174.579 39.6053 175.686 38.4658 175.686 37.1039L175.741 1.38966Z" fill="white"/>
<path d="M187.415 1.38966C187.415 0.500278 187.028 0 186.253 0L180.665 1.11173C179.835 1.2229 179.337 1.55642 179.337 2.64036V39.6331L184.87 39.6053C186.253 39.6053 187.36 38.4658 187.36 37.1039L187.415 1.38966Z" fill="white"/>
<path d="M138.867 13.9522C138.867 14.0912 138.839 14.2858 138.756 14.4803L131.619 37.9378C131.481 38.4381 131.26 38.8272 130.983 39.0773C130.706 39.3274 130.236 39.4664 129.655 39.4664H125.506C124.925 39.4664 124.51 39.3274 124.261 39.0773C123.984 38.7994 123.763 38.4103 123.597 37.8544L119.697 28.3769H119.586L115.99 38.0212C115.824 38.5214 115.575 38.8828 115.298 39.1329C115.022 39.383 114.579 39.4942 113.97 39.4942H109.627C109.129 39.4942 108.714 39.3552 108.41 39.0495C108.106 38.7716 107.885 38.3825 107.746 37.91L100.692 14.4803C100.665 14.3691 100.637 14.2302 100.637 14.0356C100.637 13.7577 100.775 13.5353 101.024 13.4242C101.273 13.313 101.605 13.2296 101.992 13.2296H107.608C108.189 13.2296 108.576 13.3408 108.853 13.5909C109.102 13.8133 109.268 14.1468 109.323 14.5359L112.172 28.2935H112.228L116.681 14.5359C116.93 13.6743 117.179 13.2296 118.092 13.2296H121.799C122.795 13.2296 123.403 13.6187 123.625 14.3691L127.553 28.4603H127.608L130.762 14.6471C130.845 14.2024 131.011 13.8689 131.26 13.6187C131.536 13.3686 131.951 13.2296 132.504 13.2296H137.926C138.314 13.2296 138.563 13.313 138.701 13.452C138.812 13.6187 138.867 13.7855 138.867 13.9522Z" fill="white"/>
<path d="M164.234 26.9317C164.234 27.5709 164.095 28.0156 163.763 28.2102C163.459 28.4047 162.961 28.5159 162.297 28.5159H147.304C147.636 30.2113 148.438 31.5176 149.766 32.4069C151.094 33.2963 152.56 33.741 154.22 33.741C155.409 33.741 156.543 33.6298 157.677 33.3519C158.812 33.1018 159.891 32.7683 160.969 32.3236C161.191 32.2124 161.384 32.1568 161.606 32.1568C162.021 32.1568 162.325 32.4069 162.463 32.9072C162.491 33.1296 162.574 33.4353 162.712 33.8244C162.85 34.2135 162.961 34.6304 163.072 35.0473C163.182 35.4642 163.265 35.8533 163.376 36.2424C163.459 36.6315 163.514 36.9094 163.514 37.1318C163.514 37.4931 163.404 37.7432 163.21 37.8822C163.016 38.0212 162.767 38.1601 162.491 38.3269C161.052 38.9939 159.476 39.4386 157.76 39.7444C156.018 40.0223 154.386 40.189 152.809 40.189C150.651 40.189 148.742 39.8555 147.027 39.2163C145.312 38.577 143.846 37.6599 142.657 36.4648C141.467 35.2696 140.527 33.8244 139.863 32.1012C139.199 30.378 138.867 28.4325 138.867 26.2924C138.867 24.2079 139.199 22.318 139.89 20.6226C140.582 18.9272 141.522 17.4542 142.74 16.2591C143.957 15.064 145.423 14.119 147.11 13.452C148.798 12.7849 150.679 12.4514 152.754 12.4514C154.469 12.4514 156.018 12.7571 157.456 13.3686C158.867 13.98 160.084 14.8138 161.08 15.8978C162.435 17.343 163.321 18.9272 163.708 20.706C164.095 22.4848 164.289 24.3191 164.289 26.2369L164.234 26.9317ZM156.377 23.3741C156.377 22.7905 156.294 22.2346 156.128 21.6788C155.962 21.1229 155.713 20.6226 155.354 20.1779C154.994 19.7332 154.552 19.3719 154.054 19.094C153.528 18.8161 152.947 18.7049 152.256 18.7049C150.9 18.7049 149.794 19.1774 148.964 20.0946C148.134 21.0395 147.608 22.1235 147.442 23.3741H156.377Z" fill="white"/>
<path d="M70.8442 13.1183C70.3463 13.0072 69.7654 12.896 69.3504 12.896C66.1969 12.896 64.6478 13.702 62.7114 16.0366L62.6007 14.4246C62.5454 13.6186 62.0751 13.3407 61.0516 13.3407H56.5703C55.6574 13.3407 55.0211 13.6186 55.0211 14.8971V39.5775L61.0793 39.5497C62.0475 39.5497 62.8497 38.7437 62.8497 37.7709V21.9566C64.2052 20.6225 66.3075 20.1778 68.078 20.1778C68.9908 20.1778 69.2675 20.3446 69.793 20.3446C70.291 20.3446 70.5399 20.0666 70.6506 19.483L71.4528 14.4246C71.5358 13.8132 71.5358 13.2851 70.8442 13.1183Z" fill="white"/>
<path d="M215.742 16.259C213.639 16.259 211.398 17.0372 209.739 18.3157C208.356 16.537 206.06 16.259 204.787 16.259C202.906 16.259 201.025 16.8983 199.476 18.0934V17.7321C199.476 17.0372 199.089 16.6203 198.452 16.6203H197.318C196.682 16.6203 196.295 17.0372 196.295 17.7321V34.269C196.295 34.9639 196.682 35.3808 197.318 35.3808H198.508C199.144 35.3808 199.531 34.9639 199.531 34.269V21.1228C201.053 19.761 202.795 18.9828 204.317 18.9828C206.889 18.9828 207.913 20.3168 207.913 23.7076V34.2968C207.913 34.9917 208.3 35.4086 208.936 35.4086H210.126C210.762 35.4086 211.15 34.9917 211.15 34.2968V23.4019C211.15 22.318 211.067 21.4008 210.845 20.567C212.228 19.5942 213.916 19.0106 215.216 19.0106C217.955 19.0106 219.033 20.3446 219.033 23.7354V34.3246C219.033 35.0195 219.421 35.4364 220.057 35.4364H221.246C221.883 35.4364 222.27 35.0195 222.27 34.3246V23.4019C222.187 18.677 220.002 16.259 215.742 16.259Z" fill="#EEEEEE"/>
<path d="M228.245 11.0339C227.139 11.0339 226.309 11.8399 226.309 12.9239C226.309 14.0078 227.139 14.8138 228.245 14.8138C229.379 14.8138 230.237 14.0078 230.237 12.9239C230.237 11.8399 229.379 11.0339 228.245 11.0339Z" fill="#EEEEEE"/>
<path d="M228.826 16.6482H227.664C227.028 16.6482 226.641 17.0651 226.641 17.7599V34.2969C226.641 34.9917 227.028 35.4086 227.664 35.4086H228.854C229.49 35.4086 229.877 34.9917 229.877 34.2969V17.7599C229.849 17.0651 229.49 16.6482 228.826 16.6482Z" fill="#EEEEEE"/>
<path d="M243.349 16.259C241.302 16.259 239.227 16.9261 237.595 18.1212V17.7321C237.595 17.0372 237.208 16.6203 236.572 16.6203H235.41C234.773 16.6203 234.386 17.0372 234.386 17.7321V34.269C234.386 34.9639 234.773 35.3808 235.41 35.3808H236.599C237.235 35.3808 237.623 34.9639 237.623 34.269V21.1228C239.034 19.8722 241.164 18.9828 242.74 18.9828C245.783 18.9828 246.392 20.7893 246.392 23.7076V34.2968C246.392 34.9917 246.779 35.4086 247.415 35.4086H248.605C249.241 35.4086 249.628 34.9917 249.628 34.2968V23.3741C249.628 18.5937 247.581 16.259 243.349 16.259Z" fill="#EEEEEE"/>
<path d="M268.245 8.22681C268.218 8.22681 268.19 8.22681 268.135 8.22681L266.669 8.42136C265.783 8.50474 265.783 9.22736 265.783 9.53309V17.9266C264.456 16.8149 262.547 16.2868 261.191 16.2868C256.184 16.2868 252.699 20.3169 252.699 26.0701C252.699 30.7393 254.774 35.7421 260.638 35.7421C262.575 35.7421 264.511 35.0195 265.922 33.7966V34.3246C265.922 35.0751 266.281 35.4364 267.056 35.4364H268.135C268.66 35.4364 269.02 34.9917 269.02 34.3246V9.25516C269.048 8.2546 268.384 8.22681 268.245 8.22681ZM265.811 21.7065V30.4892C264.788 31.9344 262.74 33.0184 261.025 33.0184C257.982 33.0184 256.018 30.2668 256.018 25.9867C256.018 21.6787 258.065 19.0106 261.385 19.0106C263.155 19.0106 265.009 20.1223 265.811 21.7065Z" fill="#EEEEEE"/>
</g>
<defs>
<clipPath id="clip0_273_1210">
<rect width="269.048" height="50" fill="white"/>
</clipPath>
</defs>
</svg>
