<svg width="1788" height="128" viewBox="0 0 1788 128" fill="none" xmlns="http://www.w3.org/2000/svg">
<g id="Type=logo, Layout=horiz, Fill=color">
<g id="BHG Single Line Logo">
<path id="Vector" d="M376.47 121.66V125.325H426.425V121.66C411.279 117.489 410.415 114.877 410.584 101.3L410.931 60.8351V60.0241C415.903 55.8954 424.107 54.2207 434.598 54.2207C437.726 54.2207 441.56 54.5683 443.118 54.9159L443.814 34.2092C431.206 34.2092 418.315 45.9634 410.953 55.6847L411.089 35.5152L374.89 37.0846V40.7393C386.549 46.1319 387.244 48.0488 387.244 61.625V100.784C387.255 114.35 386.56 116.267 376.47 121.66Z" fill="#C83AA2"/>
<path id="Vector_2" d="M1122.11 107.62C1120.52 106.029 1118.93 104.386 1117.34 102.712C1128.74 90.1782 1136.02 74.98 1137.52 62.436H1109.77V66.4488C1116.15 67.8391 1122.04 70.8092 1122.04 77.9607C1122.04 85.3439 1118.97 92.706 1114.01 99.1202C1105.34 89.6727 1097.11 79.5405 1090.71 71.1357C1087.07 66.2697 1083.72 61.783 1080.7 57.57C1102.45 51.8193 1116.36 41.2448 1116.36 26.4574C1116.36 9.35277 1104.14 0.631958 1079.54 0.631958C1057.72 0.631958 1041.75 12.3229 1041.75 29.2484C1041.75 39.4332 1046.2 49.1862 1053.09 59.8345C1036.63 65.1217 1024.78 74.1585 1024.78 94.8546C1024.78 110.558 1036.26 127.315 1066.1 127.315C1078.22 127.315 1089.35 123.661 1099.05 117.826C1101.69 120.364 1104.43 122.85 1107.35 125.399L1147.41 125.578V121.217C1135.37 120.364 1130.13 115.298 1122.11 107.62ZM1080.93 6.24572C1091.23 6.24572 1096.28 14.64 1096.28 27.5527C1096.28 39.6123 1092.41 47.6696 1078.04 53.8626C1069.29 41.2764 1063.99 31.218 1063.99 21.2544C1064 12.3545 1070.29 6.24572 1080.93 6.24572ZM1049 87.5557C1049 77.7184 1051.31 69.3557 1055.9 64.0685C1060.01 70.0509 1064.76 76.3492 1069.84 83.1953C1079.81 96.8558 1087.36 106.061 1095.41 114.245C1089 117.436 1082.02 119.311 1075.18 119.311C1057.55 119.311 1049 108.673 1049 87.5557Z" fill="#C83AA2"/>
<path id="Vector_3" d="M67.186 59.1498C88.788 57.0328 98.5093 46.7322 98.5093 30.1121C98.5093 13.4077 84.238 3.48621 57.0855 3.48621H0V7.14094C14.4504 13.2287 15.3141 14.1028 15.3141 27.6791V100.774C15.3141 114.35 14.6189 116.267 0 121.66V125.314H60.0451C88.9354 125.314 104.281 112.433 104.281 92.5901C104.281 72.4101 90.3152 60.8455 67.186 59.1498ZM41.2448 20.7172C41.2448 10.9747 43.5093 8.71027 50.9872 8.71027C65.9538 8.71027 72.7471 16.0197 72.7471 32.029C72.7471 49.6075 65.0901 57.4436 49.9445 57.4436H41.2448V20.7172ZM54.6525 119.922C41.7714 119.922 41.2553 116.614 41.2553 102.164V62.8362H50.6502C68.7554 62.8362 77.6236 71.3674 77.6236 93.1168C77.6236 110.864 69.9666 119.922 54.6525 119.922Z" fill="#C83AA2"/>
<path id="Vector_4" d="M1522.09 100.774V0L1484.62 2.09594V5.75068C1496.46 9.9847 1498.6 13.0602 1498.6 26.6364L1499.13 40.2126C1493.9 36.5579 1487.65 34.641 1480.16 34.641C1452.31 34.641 1437.87 52.0405 1437.87 84.7646C1437.87 110.179 1451.61 127.231 1470.93 127.231C1486.59 127.231 1496.21 121.143 1499.51 110H1499.97L1501.22 125.314H1535.97V121.66C1523.59 116.962 1522.09 114.35 1522.09 100.774ZM1480.66 119.09C1468.48 119.09 1464.13 108.083 1464.13 82.142C1464.13 54.1259 1469.35 42.119 1485.19 42.119C1490.06 42.119 1493.88 43.1617 1498.24 45.5947L1498.59 81.0993C1498.59 100.774 1496.67 119.09 1480.66 119.09Z" fill="#C83AA2"/>
<path id="Vector_5" d="M1705.85 101.469V63.5314C1705.85 45.2577 1696.62 35.3362 1679.22 34.9886C1667.88 34.6832 1659.09 39.3911 1651.66 47.5432V35.5047L1615.8 37.074V40.7288C1627.46 46.1213 1628.16 48.0382 1628.16 61.6145V100.774C1628.16 114.35 1627.46 116.267 1615.8 121.66V125.314H1661.4V121.66C1652.17 116.962 1651.48 114.35 1651.48 100.774L1651.63 53.4519C1656.8 48.1541 1662.88 45.4683 1669.65 45.7738C1681.3 46.1213 1682.35 51.872 1682.35 64.5741V101.469C1682.35 115.035 1681.65 117.657 1672.43 122.355V126.009H1715.77V122.355C1706.54 117.657 1705.85 115.045 1705.85 101.469Z" fill="#C83AA2"/>
<path id="Vector_6" d="M1331.79 68.5763C1301.51 70.8303 1282.59 84.9331 1282.59 104.776C1282.59 117.657 1290.76 127.231 1306.6 127.231C1319.49 127.231 1329.66 122.007 1332.97 111.39H1333.33C1334.2 116.088 1338.58 125.314 1348.15 125.314H1419V121.66C1403.85 117.478 1402.98 114.877 1403.15 101.3L1403.48 60.0662C1408.44 55.8954 1416.69 54.2312 1427.23 54.2312C1430.36 54.2312 1434.19 54.5788 1435.76 54.9264L1436.46 34.2197C1423.81 34.2197 1410.88 46.0581 1403.52 55.79L1403.68 35.5152L1367.3 37.0845V40.7393C1378.96 46.1318 1379.66 48.0487 1379.66 61.625V100.784C1379.66 114.361 1376.88 119.753 1367.82 119.753C1358.07 119.753 1355.29 114.182 1355.29 100.605V66.3119C1355.29 44.552 1344.67 34.6305 1318.04 34.6305C1307.43 34.6305 1299.35 36.895 1290.82 40.3706V60.5612H1295.35C1300.6 48.7333 1307.94 39.8545 1317.68 39.8545C1327.08 39.8545 1331.78 46.2898 1331.78 59.1709C1331.79 59.529 1331.79 68.2288 1331.79 68.5763ZM1331.79 98.0249C1331.79 108.642 1325.87 118.911 1316.64 118.911C1311.25 118.911 1306.9 113.307 1306.9 101.996C1306.9 84.7646 1315.78 76.0333 1331.79 73.7688V98.0249Z" fill="#C83AA2"/>
<path id="Vector_7" d="M1762.28 72.5049C1753.4 68.6712 1739.48 64.216 1739.48 52.2091C1739.48 44.7205 1744.35 41.2133 1752.53 41.2133C1762.63 41.2133 1770.63 46.648 1775.66 61.2669H1780.19V41.0763C1771.67 37.6006 1762.27 35.3362 1751.65 35.3362C1733.9 35.3362 1720.32 46.827 1720.32 61.962C1720.32 76.581 1726.4 83.5429 1744.86 91.0314C1761.92 97.8143 1767.49 102.522 1767.49 110.695C1767.49 118.521 1762.45 121.87 1752.53 121.87C1740.17 121.87 1728.86 113.834 1723.8 99.036H1719.81V122.355C1729.55 125.83 1740.7 127.926 1751.66 127.926C1773.77 127.926 1787 117.836 1787 100.953C1786.99 86.5025 1780.9 80.341 1762.28 72.5049Z" fill="#C83AA2"/>
<path id="Vector_8" d="M638.504 127.231C664.446 127.231 682.888 108.61 682.888 81.4574C682.888 53.7889 664.446 34.641 638.504 34.641C612.563 34.641 594.121 53.7889 594.121 81.4574C594.121 108.61 612.563 127.231 638.504 127.231ZM655.736 81.4574C655.736 109.294 650.859 121.175 638.504 121.175C625.444 121.175 620.399 109.115 620.399 81.4574C620.399 53.4413 625.444 40.3074 638.504 40.3074C650.859 40.2969 655.736 53.0937 655.736 81.4574Z" fill="#C83AA2"/>
<path id="Vector_9" d="M728.894 121.66C720.71 116.962 720.015 114.35 720.015 100.774L720.162 56.759C724.049 49.6812 730.589 45.4261 738.11 45.4261C747.684 45.4261 750.822 49.9445 750.822 63.8789V100.774C750.822 114.35 750.127 116.962 741.775 121.66V125.325H784.241V121.66C775.015 116.962 774.32 114.35 774.32 100.774V57.3593C778.185 49.9129 784.989 45.4261 792.246 45.4261C801.82 45.4261 804.948 49.9445 804.948 63.8789V100.774C804.948 114.35 804.253 116.962 795.901 121.66V125.325H838.367V121.66C829.141 116.962 828.446 114.35 828.446 100.774V58.6548C828.446 45.0786 818.524 34.641 801.82 34.641C789.739 34.641 780.218 39.8966 773.477 50.8714C770.781 41.8451 761.744 34.641 748.737 34.641C736.024 34.641 726.829 39.3068 720.194 49.0282V48.3857V35.5046L684.342 37.074V40.7287C696.001 46.1213 696.707 48.0382 696.707 61.6144V100.774C696.707 114.35 696.012 116.267 684.342 121.66V125.325H728.904V121.66" fill="#C83AA2"/>
<path id="Vector_10" d="M524.629 121.66C510.01 116.267 509.315 114.35 509.315 100.774V66.2487H554.92V100.774C554.92 114.35 554.225 116.267 539.606 121.66V125.325H595.649V121.66C581.03 116.267 580.334 114.35 580.334 100.774V27.6791C580.334 14.1028 581.209 13.2287 595.649 7.14094V3.48621H539.606V7.14094C554.056 13.2287 554.92 14.1028 554.92 27.6791V59.529H509.315V27.6791C509.315 14.1028 510.178 13.2287 524.629 7.14094V3.48621H468.586V7.14094C483.036 13.2287 483.9 14.1028 483.9 27.6791V100.774C483.9 114.35 483.205 116.267 468.586 121.66V125.325H524.629V121.66" fill="#C83AA2"/>
<path id="Vector_11" d="M971.707 71.8098C962.817 67.976 948.904 63.5208 948.904 51.5139C948.904 44.0359 953.77 40.5181 961.964 40.5181C972.054 40.5181 980.059 45.9528 985.104 60.5717H989.633V40.3811C981.102 36.8949 971.707 34.641 961.09 34.641C943.343 34.641 929.756 46.1318 929.756 61.2668C929.756 75.8858 935.844 82.8477 954.297 90.3362C971.359 97.1191 976.931 101.827 976.931 110C976.931 117.836 971.875 121.175 961.964 121.175C949.61 121.175 938.288 113.139 933.243 98.3408H929.24V121.66C938.993 125.135 950.136 127.231 961.09 127.231C983.198 127.231 996.416 117.141 996.416 100.258C996.416 85.8073 990.318 79.6458 971.707 71.8098Z" fill="#C83AA2"/>
<path id="Vector_12" d="M1223.21 66.6068C1243.79 72.0942 1244.47 73.8004 1244.47 88.5563V110.843C1244.47 118.732 1240.36 122.165 1227.66 122.165C1202.98 122.165 1192.32 104.323 1192.32 65.9222C1192.32 24.7722 1203.31 6.59333 1229.38 6.59333C1248.58 6.59333 1258.19 20.9911 1261.96 37.4532H1267.79V6.9409C1257.16 3.50734 1241.71 0.768921 1228.7 0.768921C1187.88 0.768921 1162.88 24.4246 1162.88 67.639C1162.88 106.735 1185.16 128 1225.27 128C1243.11 128 1255.8 125.946 1269.51 121.143V88.5563C1269.51 73.811 1270.19 72.0942 1278.42 66.6068V62.4887H1223.21V66.6068" fill="#C83AA2"/>
<path id="Vector_13" d="M278.181 42.119V104.45C278.181 115.235 280.961 118.9 289.145 118.9C292.621 118.9 296.581 118.584 299.235 118.205L300.13 122.334C294.769 124.756 287.26 126.02 278.181 126.02C262.519 126.02 254.683 118.879 254.683 102.87V42.119H225.098V104.45C225.098 115.235 227.878 118.9 236.062 118.9C239.537 118.9 243.498 118.584 246.152 118.205L247.047 122.334C241.686 124.756 234.176 126.02 225.098 126.02C209.436 126.02 201.6 118.879 201.6 102.87V42.119H185.58V37.9482C208.035 34.9886 216.208 27.5106 220.906 12.1965H225.087V36.9055H243.54C261.645 36.9055 269.302 27.5106 273.999 12.1965H278.181V36.9055H298.54V42.1296H278.181" fill="#C83AA2"/>
<path id="Vector_14" d="M154.047 127.231C174.069 127.231 183.011 120.943 191.026 112.233L188.34 109.01C180.841 115.014 172.489 119.385 162.041 119.385C144.641 119.385 138.027 108.957 138.027 87.8927V78.4978H187.634C189.72 50.1236 177.534 34.641 152.825 34.641C128.98 34.641 111.928 52.0405 111.928 81.4574C111.917 110.169 128.622 127.231 154.047 127.231ZM152.119 39.5069C160.471 39.5069 163.958 48.9018 163.958 73.1052H138.196C138.543 48.9018 142.714 39.5069 152.119 39.5069Z" fill="#C83AA2"/>
<path id="Vector_15" d="M884.162 127.231C904.184 127.231 913.126 120.943 921.131 112.233L918.455 109.01C910.956 115.014 902.604 119.385 892.156 119.385C874.757 119.385 868.142 108.957 868.142 87.8927V78.4978H917.75C919.835 50.1236 907.66 34.641 882.94 34.641C859.095 34.641 842.043 52.0405 842.043 81.4574C842.032 110.169 858.747 127.231 884.162 127.231ZM882.235 39.5069C890.587 39.5069 894.073 48.9018 894.073 73.1052H868.311C868.658 48.9018 872.84 39.5069 882.235 39.5069Z" fill="#C83AA2"/>
<path id="Vector_16" d="M1577.87 127.231C1597.89 127.231 1606.83 120.943 1614.85 112.233L1612.16 109.01C1604.66 115.014 1596.3 119.385 1585.86 119.385C1568.46 119.385 1561.85 108.957 1561.85 87.8927V78.4978H1611.45C1613.54 50.1236 1601.35 34.641 1576.64 34.641C1552.8 34.641 1535.74 52.0405 1535.74 81.4574C1535.74 110.169 1552.45 127.231 1577.87 127.231ZM1575.94 39.5069C1584.3 39.5069 1587.78 48.9018 1587.78 73.1052H1562.01C1562.37 48.9018 1566.54 39.5069 1575.94 39.5069Z" fill="#C83AA2"/>
<path id="Vector_17" d="M338.816 127.231C358.828 127.231 367.78 120.943 375.795 112.233L373.11 109.01C365.611 115.014 357.258 119.385 346.81 119.385C329.411 119.385 322.797 108.957 322.797 87.8927V78.4978H372.404C374.489 50.1236 362.314 34.641 337.594 34.641C313.749 34.641 296.697 52.0405 296.697 81.4574C296.687 110.169 313.391 127.231 338.816 127.231ZM336.889 39.5069C345.241 39.5069 348.727 48.9018 348.727 73.1052H322.965C323.313 48.9018 327.483 39.5069 336.889 39.5069Z" fill="#C83AA2"/>
</g>
</g>
</svg>
