<svg xmlns="http://www.w3.org/2000/svg" viewBox="0 0 432 432" class="center"><defs><style>.cls-1_6a75f94170e2f{fill:#ebbc4e;}.cls-2_6a75f94170e2f{fill:#fff;}</style></defs><g id="Layer_1_6a75f94170df8"><path class="cls-1_6a75f94170e2f" d="M91.33,377.65c9.04,15.9,31.2,28.79,49.49,28.79h150.35c18.29,0,40.45-12.89,49.49-28.79l75.55-132.86c9.04-15.9,9.04-41.68,0-57.58l-75.55-132.86c-9.04-15.9-31.2-28.79-49.49-28.79h-150.35c-18.29,0-40.45,12.89-49.49,28.79L15.78,187.21c-9.04,15.9-9.04,41.68,0,57.58l75.55,132.86Z"></path></g><g id="Layer_2_6a75f94170df8"><circle class="cls-2_6a75f94170e2f" cx="229.93" cy="109.88" r="27.31" transform="translate(-.66 1.39) rotate(-.35)"></circle><path class="cls-2_6a75f94170e2f" d="M235.89,228.74l11.77-33.3c4.26-13.43,4-24.76-.78-31.16-3.03-4.06-8.03-6.43-14.88-7.09-2.14-.03-4.16-.04-6.03-.04-36.62,0-131.74,5.37-131.74,5.37-5.93,0-10.75,4.81-10.75,10.75s4.81,10.75,10.75,10.75c0,0,100.99,5.37,100.99,5.37l-3.37,37.51-75.62,104.22c-4.31,5.13-3.64,12.79,1.5,17.1,5.13,4.31,12.79,3.64,17.1-1.5l73.88-76.42c16.62-17.68,22.77-30.44,27.21-41.55h-.03Z"></path><path class="cls-2_6a75f94170e2f" d="M353.83,162.52s-57.36-3.38-99.38-4.78c.15.18.3.36.44.55,5.48,7.34,7.07,17.99,4.73,30.58,25.92-1.34,94.21-4.87,94.21-4.87,5.93,0,10.75-4.81,10.75-10.75s-4.81-10.75-10.75-10.75Z"></path><path class="cls-2_6a75f94170e2f" d="M304.31,238.08l-58.19-7.94c-3.7,9.49-8.49,20.69-19.71,34.96l59.3-.02,10.22,76.08c.4,5.79,5.41,10.16,11.2,9.77s10.16-5.41,9.77-11.2v-55.76h.02v-33.84h-.09c-.69-6.27-5.86-10.9-12.52-12.05Z"></path></g></svg>
